<svg xmlns="http://www.w3.org/2000/svg" viewBox="0 0 180 48" width="180" height="48">
  <defs>
    <linearGradient id="g" x1="0%" y1="0%" x2="100%" y2="100%">
      <stop offset="0%" stop-color="#00D4C0"/>
      <stop offset="100%" stop-color="#0099CC"/>
    </linearGradient>
  </defs>

  <!-- Play triangle -->
  <path d="M8 6a2 2 0 0 1 3.008-1.728l11.997 6.998a2 2 0 0 1 .003 3.458l-12 7A2 2 0 0 1 8 19z" fill="url(#g)"/>

  <!-- Flask -->
  <g transform="translate(30, 2)">
    <path d="M14 2v6a2 2 0 0 0 .245.96l5.51 10.08A2 2 0 0 1 18 22H6a2 2 0 0 1-1.755-2.96l5.51-10.08A2 2 0 0 0 10 8V2" fill="none" stroke="url(#g)" stroke-width="2" stroke-linecap="round" stroke-linejoin="round"/>
    <path d="M6.453 15h11.094" stroke="url(#g)" stroke-width="2" stroke-linecap="round"/>
    <path d="M8.5 2h7" stroke="url(#g)" stroke-width="2" stroke-linecap="round"/>
  </g>

  <!-- Check circle -->
  <g transform="translate(74, 4)">
    <path d="M21.801 10A10 10 0 1 1 17 3.335" fill="none" stroke="url(#g)" stroke-width="2" stroke-linecap="round" stroke-linejoin="round"/>
    <path d="m9 11 3 3L22 4" fill="none" stroke="url(#g)" stroke-width="2" stroke-linecap="round" stroke-linejoin="round"/>
  </g>

  <!-- Brand text -->
  <text x="178" y="32" text-anchor="end" font-family="'Segoe UI','Helvetica Neue',Arial,sans-serif" font-size="18" font-weight="700" letter-spacing="2" fill="url(#g)">VoyanTest</text>
</svg>
